<?xml version="1.0" encoding="UTF-8" standalone="no"?>
<svg
   xmlns:dc="http://purl.org/dc/elements/1.1/"
   xmlns:cc="http://creativecommons.org/ns#"
   xmlns:rdf="http://www.w3.org/1999/02/22-rdf-syntax-ns#"
   xmlns:svg="http://www.w3.org/2000/svg"
   xmlns="http://www.w3.org/2000/svg"
   viewBox="0 0 54.666668 121.33333"
   height="121.33333"
   width="54.666668"
   xml:space="preserve"
   id="svg2"
   version="1.1"><metadata
     id="metadata8"><rdf:RDF><cc:Work
         rdf:about=""><dc:format>image/svg+xml</dc:format><dc:type
           rdf:resource="http://purl.org/dc/dcmitype/StillImage" /><dc:title></dc:title></cc:Work></rdf:RDF></metadata><defs
     id="defs6" /><g
     transform="matrix(1.3333333,0,0,-1.3333333,0,121.33333)"
     id="g10"><g
       transform="scale(0.1)"
       id="g12"><path
         id="path14"
         style="fill:#000000;fill-opacity:1;fill-rule:nonzero;stroke:none"
         d="m 196.641,904.93 c 35.039,0.109 70.238,-2.469 104.769,-8.211 54.57,-9.098 100.539,-50.039 100.539,-104.528 0,-263.832 0,-791.480062 0,-791.480062 L 201.09,0 V 715.551 H 0 c 0,0 0,51.09 0,76.64 0,58.008 15.4688,89.489 100.551,104.528 28.898,5.121 63.937,8.09 96.09,8.211 z M 87.8906,843.289 c -20.8593,0 -37.7304,-17.23 -37.7304,-38.437 0,-21.141 16.8711,-38.211 37.7304,-38.211 20.7814,0 37.7304,17.07 37.7304,38.211 0,21.207 -16.949,38.437 -37.7304,38.437 z" /></g></g></svg>