<?xml version='1.0' encoding='UTF-8' standalone='no'?>
<!-- Created with Fritzing (http://www.fritzing.org/) -->
<svg xmlns="http://www.w3.org/2000/svg" y="0in" baseProfile="tiny" viewBox="0 0 72 28.8"  x="0in" width="1in" version="1.2" height="0.4in">
    <desc>
        <referenceFile>QFN-20-0.4MM_breadboard.svg</referenceFile>
    </desc>
    <desc >Fritzing breadboard generated by brd2svg</desc>
    <g id="breadboard" stroke-width="0"  gorn="0.1">
        <g id="icon" stroke-width="0"  gorn="0.1.0">
            <path stroke-width="0"  fill="#1F7A34" stroke="none" d="M0,0L0,12.24A2.16,2.16,0,0,1,0,16.56L0,28.8L72,28.8L72,0L0,0z"/>
            <g  transform="matrix(1, 0, 0, 1, 31.176, 9.576)">
                <g stroke-width="0" >
                    <g  transform="matrix(0.5, 0, 0, 0.5, 2.412, 2.412)">
                        <g stroke-width="0" >
                            <g  transform="matrix(0, 1, -1, 0, 3.41178, 1.70078)">
                                <g stroke-width="0" >
                                    <rect y="1.70589" stroke-width="0"  x="0.572031" fill="#8c8c8c" stroke="none" width="0.566929" height="1.70078"/>
                                </g>
                            </g>
                            <g  transform="matrix(0, 1, -1, 0, 4.54564, 2.83465)">
                                <g stroke-width="0" >
                                    <rect y="2.83974" stroke-width="0"  x="0.572031" fill="#8c8c8c" stroke="none" width="0.566929" height="1.70078"/>
                                </g>
                            </g>
                            <g  transform="matrix(0, 1, -1, 0, 5.6795, 3.9685)">
                                <g stroke-width="0" >
                                    <rect y="3.97361" stroke-width="0"  x="0.572031" fill="#8c8c8c" stroke="none" width="0.566929" height="1.70078"/>
                                </g>
                            </g>
                            <g  transform="matrix(0, 1, -1, 0, 6.81335, 5.10236)">
                                <g stroke-width="0" >
                                    <rect y="5.10746" stroke-width="0"  x="0.572031" fill="#8c8c8c" stroke="none" width="0.566929" height="1.70078"/>
                                </g>
                            </g>
                            <g  transform="matrix(0, 1, -1, 0, 7.94722, 6.23622)">
                                <g stroke-width="0" >
                                    <rect y="6.24132" stroke-width="0"  x="0.572031" fill="#8c8c8c" stroke="none" width="0.566929" height="1.70078"/>
                                </g>
                            </g>
                            <g  transform="matrix(-1, 0, 0, -1, 5.11257, 17.585)">
                                <g stroke-width="0" >
                                    <rect y="7.9421" stroke-width="0"  x="2.27282" fill="#8c8c8c" stroke="none" width="0.566929" height="1.70078"/>
                                </g>
                            </g>
                            <g  transform="matrix(-1, 0, 0, -1, 7.38029, 17.585)">
                                <g stroke-width="0" >
                                    <rect y="7.9421" stroke-width="0"  x="3.40668" fill="#8c8c8c" stroke="none" width="0.566929" height="1.70078"/>
                                </g>
                            </g>
                            <g  transform="matrix(-1, 0, 0, -1, 9.648, 17.585)">
                                <g stroke-width="0" >
                                    <rect y="7.9421" stroke-width="0"  x="4.54054" fill="#8c8c8c" stroke="none" width="0.566929" height="1.70078"/>
                                </g>
                            </g>
                            <g  transform="matrix(-1, 0, 0, -1, 11.9157, 17.585)">
                                <g stroke-width="0" >
                                    <rect y="7.9421" stroke-width="0"  x="5.67439" fill="#8c8c8c" stroke="none" width="0.566929" height="1.70078"/>
                                </g>
                            </g>
                            <g  transform="matrix(-1, 0, 0, -1, 14.1834, 17.585)">
                                <g stroke-width="0" >
                                    <rect y="7.9421" stroke-width="0"  x="6.80826" fill="#8c8c8c" stroke="none" width="0.566929" height="1.70078"/>
                                </g>
                            </g>
                            <g  transform="matrix(0, -1, 1, 0, 1.70078, 15.8842)">
                                <g stroke-width="0" >
                                    <rect y="6.24132" stroke-width="0"  x="8.50903" fill="#8c8c8c" stroke="none" width="0.566929" height="1.70078"/>
                                </g>
                            </g>
                            <g  transform="matrix(0, -1, 1, 0, 2.83465, 14.7504)">
                                <g stroke-width="0" >
                                    <rect y="5.10746" stroke-width="0"  x="8.50903" fill="#8c8c8c" stroke="none" width="0.566929" height="1.70078"/>
                                </g>
                            </g>
                            <g  transform="matrix(0, -1, 1, 0, 3.9685, 13.6165)">
                                <g stroke-width="0" >
                                    <rect y="3.97361" stroke-width="0"  x="8.50903" fill="#8c8c8c" stroke="none" width="0.566929" height="1.70078"/>
                                </g>
                            </g>
                            <g  transform="matrix(0, -1, 1, 0, 5.10236, 12.4826)">
                                <g stroke-width="0" >
                                    <rect y="2.83974" stroke-width="0"  x="8.50903" fill="#8c8c8c" stroke="none" width="0.566929" height="1.70078"/>
                                </g>
                            </g>
                            <g  transform="matrix(0, -1, 1, 0, 6.23622, 11.3488)">
                                <g stroke-width="0" >
                                    <rect y="1.70589" stroke-width="0"  x="8.50903" fill="#8c8c8c" stroke="none" width="0.566929" height="1.70078"/>
                                </g>
                            </g>
                            <rect y="0.00510239" stroke-width="0"  x="6.80826" fill="#8c8c8c" stroke="none" width="0.566929" height="1.70078"/>
                            <rect y="0.00510239" stroke-width="0"  x="5.67439" fill="#8c8c8c" stroke="none" width="0.566929" height="1.70078"/>
                            <rect y="0.00510239" stroke-width="0"  x="4.54054" fill="#8c8c8c" stroke="none" width="0.566929" height="1.70078"/>
                            <rect y="0.00510239" stroke-width="0"  x="3.40668" fill="#8c8c8c" stroke="none" width="0.566929" height="1.70078"/>
                            <rect y="0.00510239" stroke-width="0"  x="2.27282" fill="#8c8c8c" stroke="none" width="0.566929" height="1.70078"/>
                            <rect y="0.572031" stroke-width="0"  x="0.572031" fill="#303030" stroke="none" width="8.50392" height="8.50392"/>
                            <polygon stroke-width="0"  fill="#1f1f1f" points="0.572031,0.572031,9.07596,0.572031,8.35596,1.29203,1.29203,1.29203"/>
                            <polygon stroke-width="0"  fill="#1f1f1f" points="0.572031,9.07596,9.07596,9.07596,8.35596,8.35596,1.29203,8.35596"/>
                            <polygon stroke-width="0"  fill="#000000" points="0.572031,0.572031,0.572031,9.07596,1.29203,8.35596,1.29203,1.29203"/>
                            <polygon stroke-width="0"  fill="#3d3d3d" points="9.07596,0.572031,9.07596,9.07596,8.35596,8.35596,8.35596,1.29203"/>
                            <circle cy="6.91597" stroke-width="0"  fill="#1f1f1f" stroke="none" r="0.72" cx="2.73203"/>
                        </g>
                    </g>
                </g>
            </g>
            <text y="16.155" font-family="OCRA" id="label" stroke-width="0"  x="3.6" fill="white" stroke="none" font-size="4.68" text-anchor="start" gorn="0.1.0.2">QFN-20-0.4MM</text>
            <g  transform="matrix(1, 0, 0, 1, 4.572, 23.4756)">
                <g stroke-width="0" >
                    <g  transform="rotate(-90)">
                        <g stroke-width="0" >
                            <text y="0" font-family="OCRA" stroke-width="0"  x="0" fill="white" stroke="none" font-size="3.24" text-anchor="start">1</text>
                        </g>
                    </g>
                </g>
            </g>
            <g  transform="matrix(1, 0, 0, 1, 4.572, 5.3244)">
                <g stroke-width="0" >
                    <g  transform="rotate(-90)">
                        <g stroke-width="0" >
                            <text y="0" font-family="OCRA" stroke-width="0"  x="0" fill="white" stroke="none" font-size="3.24" text-anchor="end">20</text>
                        </g>
                    </g>
                </g>
            </g>
            <g  transform="matrix(1, 0, 0, 1, 11.772, 23.4756)">
                <g stroke-width="0" >
                    <g  transform="rotate(-90)">
                        <g stroke-width="0" >
                            <text y="0" font-family="OCRA" stroke-width="0"  x="0" fill="white" stroke="none" font-size="3.24" text-anchor="start">2</text>
                        </g>
                    </g>
                </g>
            </g>
            <g  transform="matrix(1, 0, 0, 1, 11.772, 5.3244)">
                <g stroke-width="0" >
                    <g  transform="rotate(-90)">
                        <g stroke-width="0" >
                            <text y="0" font-family="OCRA" stroke-width="0"  x="0" fill="white" stroke="none" font-size="3.24" text-anchor="end">19</text>
                        </g>
                    </g>
                </g>
            </g>
            <g  transform="matrix(1, 0, 0, 1, 18.972, 23.4756)">
                <g stroke-width="0" >
                    <g  transform="rotate(-90)">
                        <g stroke-width="0" >
                            <text y="0" font-family="OCRA" stroke-width="0"  x="0" fill="white" stroke="none" font-size="3.24" text-anchor="start">3</text>
                        </g>
                    </g>
                </g>
            </g>
            <g  transform="matrix(1, 0, 0, 1, 18.972, 5.3244)">
                <g stroke-width="0" >
                    <g  transform="rotate(-90)">
                        <g stroke-width="0" >
                            <text y="0" font-family="OCRA" stroke-width="0"  x="0" fill="white" stroke="none" font-size="3.24" text-anchor="end">18</text>
                        </g>
                    </g>
                </g>
            </g>
            <g  transform="matrix(1, 0, 0, 1, 26.172, 23.4756)">
                <g stroke-width="0" >
                    <g  transform="rotate(-90)">
                        <g stroke-width="0" >
                            <text y="0" font-family="OCRA" stroke-width="0"  x="0" fill="white" stroke="none" font-size="3.24" text-anchor="start">4</text>
                        </g>
                    </g>
                </g>
            </g>
            <g  transform="matrix(1, 0, 0, 1, 26.172, 5.3244)">
                <g stroke-width="0" >
                    <g  transform="rotate(-90)">
                        <g stroke-width="0" >
                            <text y="0" font-family="OCRA" stroke-width="0"  x="0" fill="white" stroke="none" font-size="3.24" text-anchor="end">17</text>
                        </g>
                    </g>
                </g>
            </g>
            <g  transform="matrix(1, 0, 0, 1, 33.372, 23.4756)">
                <g stroke-width="0" >
                    <g  transform="rotate(-90)">
                        <g stroke-width="0" >
                            <text y="0" font-family="OCRA" stroke-width="0"  x="0" fill="white" stroke="none" font-size="3.24" text-anchor="start">5</text>
                        </g>
                    </g>
                </g>
            </g>
            <g  transform="matrix(1, 0, 0, 1, 33.372, 5.3244)">
                <g stroke-width="0" >
                    <g  transform="rotate(-90)">
                        <g stroke-width="0" >
                            <text y="0" font-family="OCRA" stroke-width="0"  x="0" fill="white" stroke="none" font-size="3.24" text-anchor="end">16</text>
                        </g>
                    </g>
                </g>
            </g>
            <g  transform="matrix(1, 0, 0, 1, 40.572, 23.4756)">
                <g stroke-width="0" >
                    <g  transform="rotate(-90)">
                        <g stroke-width="0" >
                            <text y="0" font-family="OCRA" stroke-width="0"  x="0" fill="white" stroke="none" font-size="3.24" text-anchor="start">6</text>
                        </g>
                    </g>
                </g>
            </g>
            <g  transform="matrix(1, 0, 0, 1, 40.572, 5.3244)">
                <g stroke-width="0" >
                    <g  transform="rotate(-90)">
                        <g stroke-width="0" >
                            <text y="0" font-family="OCRA" stroke-width="0"  x="0" fill="white" stroke="none" font-size="3.24" text-anchor="end">15</text>
                        </g>
                    </g>
                </g>
            </g>
            <g  transform="matrix(1, 0, 0, 1, 47.772, 23.4756)">
                <g stroke-width="0" >
                    <g  transform="rotate(-90)">
                        <g stroke-width="0" >
                            <text y="0" font-family="OCRA" stroke-width="0"  x="0" fill="white" stroke="none" font-size="3.24" text-anchor="start">7</text>
                        </g>
                    </g>
                </g>
            </g>
            <g  transform="matrix(1, 0, 0, 1, 47.772, 5.3244)">
                <g stroke-width="0" >
                    <g  transform="rotate(-90)">
                        <g stroke-width="0" >
                            <text y="0" font-family="OCRA" stroke-width="0"  x="0" fill="white" stroke="none" font-size="3.24" text-anchor="end">14</text>
                        </g>
                    </g>
                </g>
            </g>
            <g  transform="matrix(1, 0, 0, 1, 54.972, 23.4756)">
                <g stroke-width="0" >
                    <g  transform="rotate(-90)">
                        <g stroke-width="0" >
                            <text y="0" font-family="OCRA" stroke-width="0"  x="0" fill="white" stroke="none" font-size="3.24" text-anchor="start">8</text>
                        </g>
                    </g>
                </g>
            </g>
            <g  transform="matrix(1, 0, 0, 1, 54.972, 5.3244)">
                <g stroke-width="0" >
                    <g  transform="rotate(-90)">
                        <g stroke-width="0" >
                            <text y="0" font-family="OCRA" stroke-width="0"  x="0" fill="white" stroke="none" font-size="3.24" text-anchor="end">13</text>
                        </g>
                    </g>
                </g>
            </g>
            <g  transform="matrix(1, 0, 0, 1, 62.172, 23.4756)">
                <g stroke-width="0" >
                    <g  transform="rotate(-90)">
                        <g stroke-width="0" >
                            <text y="0" font-family="OCRA" stroke-width="0"  x="0" fill="white" stroke="none" font-size="3.24" text-anchor="start">9</text>
                        </g>
                    </g>
                </g>
            </g>
            <g  transform="matrix(1, 0, 0, 1, 62.172, 5.3244)">
                <g stroke-width="0" >
                    <g  transform="rotate(-90)">
                        <g stroke-width="0" >
                            <text y="0" font-family="OCRA" stroke-width="0"  x="0" fill="white" stroke="none" font-size="3.24" text-anchor="end">12</text>
                        </g>
                    </g>
                </g>
            </g>
            <g  transform="matrix(1, 0, 0, 1, 69.372, 23.4756)">
                <g stroke-width="0" >
                    <g  transform="rotate(-90)">
                        <g stroke-width="0" >
                            <text y="0" font-family="OCRA" stroke-width="0"  x="0" fill="white" stroke="none" font-size="3.24" text-anchor="start">10</text>
                        </g>
                    </g>
                </g>
            </g>
            <g  transform="matrix(1, 0, 0, 1, 69.372, 5.3244)">
                <g stroke-width="0" >
                    <g  transform="rotate(-90)">
                        <g stroke-width="0" >
                            <text y="0" font-family="OCRA" stroke-width="0"  x="0" fill="white" stroke="none" font-size="3.24" text-anchor="end">11</text>
                        </g>
                    </g>
                </g>
            </g>
        </g>
        <g  transform="matrix(1, 0, 0, 1, 2.45052, 24.0516)">
            <g id="connector0pin" stroke-width="0"  gorn="0.1.1.0">
                <rect y="0" stroke-width="0"  x="0" fill="#8D8C8C" width="2.29896" height="2.2968"/>
                <rect y="0.556952" stroke-width="0"  x="0.56099" fill="#8C8663" width="1.18398" height="1.18189"/>
                <polygon stroke-width="0"  fill="#B8AF82" points="0,2.2968,0.56099,1.73785,0.56099,0.501957,0,0"/>
                <polygon stroke-width="0"  fill="#80795B" points="1.74297,0.558951,0.56899,0.558951,0,0,2.29896,0"/>
                <polygon stroke-width="0"  fill="#5E5B43" points="1.74297,1.73785,1.74297,0.558951,2.29896,0,2.29896,2.2968"/>
                <polygon stroke-width="0"  fill="#9A916C" points="0,2.2968,0.56699,1.73785,1.74297,1.73785,2.29896,2.2968"/>
            </g>
        </g>
        <g  transform="matrix(1, 0, 0, 1, 2.45052, 2.4516)">
            <g id="connector19pin" stroke-width="0"  gorn="0.1.2.0">
                <rect y="0" stroke-width="0"  x="0" fill="#8D8C8C" width="2.29896" height="2.2968"/>
                <rect y="0.556952" stroke-width="0"  x="0.56099" fill="#8C8663" width="1.18398" height="1.18189"/>
                <polygon stroke-width="0"  fill="#B8AF82" points="0,2.2968,0.56099,1.73785,0.56099,0.501957,0,0"/>
                <polygon stroke-width="0"  fill="#80795B" points="1.74297,0.558951,0.56899,0.558951,0,0,2.29896,0"/>
                <polygon stroke-width="0"  fill="#5E5B43" points="1.74297,1.73785,1.74297,0.558951,2.29896,0,2.29896,2.2968"/>
                <polygon stroke-width="0"  fill="#9A916C" points="0,2.2968,0.56699,1.73785,1.74297,1.73785,2.29896,2.2968"/>
            </g>
        </g>
        <g  transform="matrix(1, 0, 0, 1, 9.65052, 24.0516)">
            <g id="connector1pin" stroke-width="0"  gorn="0.1.3.0">
                <rect y="0" stroke-width="0"  x="0" fill="#8D8C8C" width="2.29896" height="2.2968"/>
                <rect y="0.556952" stroke-width="0"  x="0.56099" fill="#8C8663" width="1.18398" height="1.18189"/>
                <polygon stroke-width="0"  fill="#B8AF82" points="0,2.2968,0.56099,1.73785,0.56099,0.501957,0,0"/>
                <polygon stroke-width="0"  fill="#80795B" points="1.74297,0.558951,0.56899,0.558951,0,0,2.29896,0"/>
                <polygon stroke-width="0"  fill="#5E5B43" points="1.74297,1.73785,1.74297,0.558951,2.29896,0,2.29896,2.2968"/>
                <polygon stroke-width="0"  fill="#9A916C" points="0,2.2968,0.56699,1.73785,1.74297,1.73785,2.29896,2.2968"/>
            </g>
        </g>
        <g  transform="matrix(1, 0, 0, 1, 9.65052, 2.4516)">
            <g id="connector18pin" stroke-width="0"  gorn="0.1.4.0">
                <rect y="0" stroke-width="0"  x="0" fill="#8D8C8C" width="2.29896" height="2.2968"/>
                <rect y="0.556952" stroke-width="0"  x="0.56099" fill="#8C8663" width="1.18398" height="1.18189"/>
                <polygon stroke-width="0"  fill="#B8AF82" points="0,2.2968,0.56099,1.73785,0.56099,0.501957,0,0"/>
                <polygon stroke-width="0"  fill="#80795B" points="1.74297,0.558951,0.56899,0.558951,0,0,2.29896,0"/>
                <polygon stroke-width="0"  fill="#5E5B43" points="1.74297,1.73785,1.74297,0.558951,2.29896,0,2.29896,2.2968"/>
                <polygon stroke-width="0"  fill="#9A916C" points="0,2.2968,0.56699,1.73785,1.74297,1.73785,2.29896,2.2968"/>
            </g>
        </g>
        <g  transform="matrix(1, 0, 0, 1, 16.8505, 24.0516)">
            <g id="connector2pin" stroke-width="0"  gorn="0.1.5.0">
                <rect y="0" stroke-width="0"  x="0" fill="#8D8C8C" width="2.29896" height="2.2968"/>
                <rect y="0.556952" stroke-width="0"  x="0.56099" fill="#8C8663" width="1.18398" height="1.18189"/>
                <polygon stroke-width="0"  fill="#B8AF82" points="0,2.2968,0.56099,1.73785,0.56099,0.501957,0,0"/>
                <polygon stroke-width="0"  fill="#80795B" points="1.74297,0.558951,0.56899,0.558951,0,0,2.29896,0"/>
                <polygon stroke-width="0"  fill="#5E5B43" points="1.74297,1.73785,1.74297,0.558951,2.29896,0,2.29896,2.2968"/>
                <polygon stroke-width="0"  fill="#9A916C" points="0,2.2968,0.56699,1.73785,1.74297,1.73785,2.29896,2.2968"/>
            </g>
        </g>
        <g  transform="matrix(1, 0, 0, 1, 16.8505, 2.4516)">
            <g id="connector17pin" stroke-width="0"  gorn="0.1.6.0">
                <rect y="0" stroke-width="0"  x="0" fill="#8D8C8C" width="2.29896" height="2.2968"/>
                <rect y="0.556952" stroke-width="0"  x="0.56099" fill="#8C8663" width="1.18398" height="1.18189"/>
                <polygon stroke-width="0"  fill="#B8AF82" points="0,2.2968,0.56099,1.73785,0.56099,0.501957,0,0"/>
                <polygon stroke-width="0"  fill="#80795B" points="1.74297,0.558951,0.56899,0.558951,0,0,2.29896,0"/>
                <polygon stroke-width="0"  fill="#5E5B43" points="1.74297,1.73785,1.74297,0.558951,2.29896,0,2.29896,2.2968"/>
                <polygon stroke-width="0"  fill="#9A916C" points="0,2.2968,0.56699,1.73785,1.74297,1.73785,2.29896,2.2968"/>
            </g>
        </g>
        <g  transform="matrix(1, 0, 0, 1, 24.0505, 24.0516)">
            <g id="connector3pin" stroke-width="0"  gorn="0.1.7.0">
                <rect y="0" stroke-width="0"  x="0" fill="#8D8C8C" width="2.29896" height="2.2968"/>
                <rect y="0.556952" stroke-width="0"  x="0.56099" fill="#8C8663" width="1.18398" height="1.18189"/>
                <polygon stroke-width="0"  fill="#B8AF82" points="0,2.2968,0.56099,1.73785,0.56099,0.501957,0,0"/>
                <polygon stroke-width="0"  fill="#80795B" points="1.74297,0.558951,0.56899,0.558951,0,0,2.29896,0"/>
                <polygon stroke-width="0"  fill="#5E5B43" points="1.74297,1.73785,1.74297,0.558951,2.29896,0,2.29896,2.2968"/>
                <polygon stroke-width="0"  fill="#9A916C" points="0,2.2968,0.56699,1.73785,1.74297,1.73785,2.29896,2.2968"/>
            </g>
        </g>
        <g  transform="matrix(1, 0, 0, 1, 24.0505, 2.4516)">
            <g id="connector16pin" stroke-width="0"  gorn="0.1.8.0">
                <rect y="0" stroke-width="0"  x="0" fill="#8D8C8C" width="2.29896" height="2.2968"/>
                <rect y="0.556952" stroke-width="0"  x="0.56099" fill="#8C8663" width="1.18398" height="1.18189"/>
                <polygon stroke-width="0"  fill="#B8AF82" points="0,2.2968,0.56099,1.73785,0.56099,0.501957,0,0"/>
                <polygon stroke-width="0"  fill="#80795B" points="1.74297,0.558951,0.56899,0.558951,0,0,2.29896,0"/>
                <polygon stroke-width="0"  fill="#5E5B43" points="1.74297,1.73785,1.74297,0.558951,2.29896,0,2.29896,2.2968"/>
                <polygon stroke-width="0"  fill="#9A916C" points="0,2.2968,0.56699,1.73785,1.74297,1.73785,2.29896,2.2968"/>
            </g>
        </g>
        <g  transform="matrix(1, 0, 0, 1, 31.2505, 24.0516)">
            <g id="connector4pin" stroke-width="0"  gorn="0.1.9.0">
                <rect y="0" stroke-width="0"  x="0" fill="#8D8C8C" width="2.29896" height="2.2968"/>
                <rect y="0.556952" stroke-width="0"  x="0.56099" fill="#8C8663" width="1.18398" height="1.18189"/>
                <polygon stroke-width="0"  fill="#B8AF82" points="0,2.2968,0.56099,1.73785,0.56099,0.501957,0,0"/>
                <polygon stroke-width="0"  fill="#80795B" points="1.74297,0.558951,0.56899,0.558951,0,0,2.29896,0"/>
                <polygon stroke-width="0"  fill="#5E5B43" points="1.74297,1.73785,1.74297,0.558951,2.29896,0,2.29896,2.2968"/>
                <polygon stroke-width="0"  fill="#9A916C" points="0,2.2968,0.56699,1.73785,1.74297,1.73785,2.29896,2.2968"/>
            </g>
        </g>
        <g  transform="matrix(1, 0, 0, 1, 31.2505, 2.4516)">
            <g id="connector15pin" stroke-width="0"  gorn="0.1.10.0">
                <rect y="0" stroke-width="0"  x="0" fill="#8D8C8C" width="2.29896" height="2.2968"/>
                <rect y="0.556952" stroke-width="0"  x="0.56099" fill="#8C8663" width="1.18398" height="1.18189"/>
                <polygon stroke-width="0"  fill="#B8AF82" points="0,2.2968,0.56099,1.73785,0.56099,0.501957,0,0"/>
                <polygon stroke-width="0"  fill="#80795B" points="1.74297,0.558951,0.56899,0.558951,0,0,2.29896,0"/>
                <polygon stroke-width="0"  fill="#5E5B43" points="1.74297,1.73785,1.74297,0.558951,2.29896,0,2.29896,2.2968"/>
                <polygon stroke-width="0"  fill="#9A916C" points="0,2.2968,0.56699,1.73785,1.74297,1.73785,2.29896,2.2968"/>
            </g>
        </g>
        <g  transform="matrix(1, 0, 0, 1, 38.4505, 24.0516)">
            <g id="connector5pin" stroke-width="0"  gorn="0.1.11.0">
                <rect y="0" stroke-width="0"  x="0" fill="#8D8C8C" width="2.29896" height="2.2968"/>
                <rect y="0.556952" stroke-width="0"  x="0.56099" fill="#8C8663" width="1.18398" height="1.18189"/>
                <polygon stroke-width="0"  fill="#B8AF82" points="0,2.2968,0.56099,1.73785,0.56099,0.501957,0,0"/>
                <polygon stroke-width="0"  fill="#80795B" points="1.74297,0.558951,0.56899,0.558951,0,0,2.29896,0"/>
                <polygon stroke-width="0"  fill="#5E5B43" points="1.74297,1.73785,1.74297,0.558951,2.29896,0,2.29896,2.2968"/>
                <polygon stroke-width="0"  fill="#9A916C" points="0,2.2968,0.56699,1.73785,1.74297,1.73785,2.29896,2.2968"/>
            </g>
        </g>
        <g  transform="matrix(1, 0, 0, 1, 38.4505, 2.4516)">
            <g id="connector14pin" stroke-width="0"  gorn="0.1.12.0">
                <rect y="0" stroke-width="0"  x="0" fill="#8D8C8C" width="2.29896" height="2.2968"/>
                <rect y="0.556952" stroke-width="0"  x="0.56099" fill="#8C8663" width="1.18398" height="1.18189"/>
                <polygon stroke-width="0"  fill="#B8AF82" points="0,2.2968,0.56099,1.73785,0.56099,0.501957,0,0"/>
                <polygon stroke-width="0"  fill="#80795B" points="1.74297,0.558951,0.56899,0.558951,0,0,2.29896,0"/>
                <polygon stroke-width="0"  fill="#5E5B43" points="1.74297,1.73785,1.74297,0.558951,2.29896,0,2.29896,2.2968"/>
                <polygon stroke-width="0"  fill="#9A916C" points="0,2.2968,0.56699,1.73785,1.74297,1.73785,2.29896,2.2968"/>
            </g>
        </g>
        <g  transform="matrix(1, 0, 0, 1, 45.6505, 24.0516)">
            <g id="connector6pin" stroke-width="0"  gorn="0.1.13.0">
                <rect y="0" stroke-width="0"  x="0" fill="#8D8C8C" width="2.29896" height="2.2968"/>
                <rect y="0.556952" stroke-width="0"  x="0.56099" fill="#8C8663" width="1.18398" height="1.18189"/>
                <polygon stroke-width="0"  fill="#B8AF82" points="0,2.2968,0.56099,1.73785,0.56099,0.501957,0,0"/>
                <polygon stroke-width="0"  fill="#80795B" points="1.74297,0.558951,0.56899,0.558951,0,0,2.29896,0"/>
                <polygon stroke-width="0"  fill="#5E5B43" points="1.74297,1.73785,1.74297,0.558951,2.29896,0,2.29896,2.2968"/>
                <polygon stroke-width="0"  fill="#9A916C" points="0,2.2968,0.56699,1.73785,1.74297,1.73785,2.29896,2.2968"/>
            </g>
        </g>
        <g  transform="matrix(1, 0, 0, 1, 45.6505, 2.4516)">
            <g id="connector13pin" stroke-width="0"  gorn="0.1.14.0">
                <rect y="0" stroke-width="0"  x="0" fill="#8D8C8C" width="2.29896" height="2.2968"/>
                <rect y="0.556952" stroke-width="0"  x="0.56099" fill="#8C8663" width="1.18398" height="1.18189"/>
                <polygon stroke-width="0"  fill="#B8AF82" points="0,2.2968,0.56099,1.73785,0.56099,0.501957,0,0"/>
                <polygon stroke-width="0"  fill="#80795B" points="1.74297,0.558951,0.56899,0.558951,0,0,2.29896,0"/>
                <polygon stroke-width="0"  fill="#5E5B43" points="1.74297,1.73785,1.74297,0.558951,2.29896,0,2.29896,2.2968"/>
                <polygon stroke-width="0"  fill="#9A916C" points="0,2.2968,0.56699,1.73785,1.74297,1.73785,2.29896,2.2968"/>
            </g>
        </g>
        <g  transform="matrix(1, 0, 0, 1, 52.8505, 24.0516)">
            <g id="connector7pin" stroke-width="0"  gorn="0.1.15.0">
                <rect y="0" stroke-width="0"  x="0" fill="#8D8C8C" width="2.29896" height="2.2968"/>
                <rect y="0.556952" stroke-width="0"  x="0.56099" fill="#8C8663" width="1.18398" height="1.18189"/>
                <polygon stroke-width="0"  fill="#B8AF82" points="0,2.2968,0.56099,1.73785,0.56099,0.501957,0,0"/>
                <polygon stroke-width="0"  fill="#80795B" points="1.74297,0.558951,0.56899,0.558951,0,0,2.29896,0"/>
                <polygon stroke-width="0"  fill="#5E5B43" points="1.74297,1.73785,1.74297,0.558951,2.29896,0,2.29896,2.2968"/>
                <polygon stroke-width="0"  fill="#9A916C" points="0,2.2968,0.56699,1.73785,1.74297,1.73785,2.29896,2.2968"/>
            </g>
        </g>
        <g  transform="matrix(1, 0, 0, 1, 52.8505, 2.4516)">
            <g id="connector12pin" stroke-width="0"  gorn="0.1.16.0">
                <rect y="0" stroke-width="0"  x="0" fill="#8D8C8C" width="2.29896" height="2.2968"/>
                <rect y="0.556952" stroke-width="0"  x="0.56099" fill="#8C8663" width="1.18398" height="1.18189"/>
                <polygon stroke-width="0"  fill="#B8AF82" points="0,2.2968,0.56099,1.73785,0.56099,0.501957,0,0"/>
                <polygon stroke-width="0"  fill="#80795B" points="1.74297,0.558951,0.56899,0.558951,0,0,2.29896,0"/>
                <polygon stroke-width="0"  fill="#5E5B43" points="1.74297,1.73785,1.74297,0.558951,2.29896,0,2.29896,2.2968"/>
                <polygon stroke-width="0"  fill="#9A916C" points="0,2.2968,0.56699,1.73785,1.74297,1.73785,2.29896,2.2968"/>
            </g>
        </g>
        <g  transform="matrix(1, 0, 0, 1, 60.0505, 24.0516)">
            <g id="connector8pin" stroke-width="0"  gorn="0.1.17.0">
                <rect y="0" stroke-width="0"  x="0" fill="#8D8C8C" width="2.29896" height="2.2968"/>
                <rect y="0.556952" stroke-width="0"  x="0.56099" fill="#8C8663" width="1.18398" height="1.18189"/>
                <polygon stroke-width="0"  fill="#B8AF82" points="0,2.2968,0.56099,1.73785,0.56099,0.501957,0,0"/>
                <polygon stroke-width="0"  fill="#80795B" points="1.74297,0.558951,0.56899,0.558951,0,0,2.29896,0"/>
                <polygon stroke-width="0"  fill="#5E5B43" points="1.74297,1.73785,1.74297,0.558951,2.29896,0,2.29896,2.2968"/>
                <polygon stroke-width="0"  fill="#9A916C" points="0,2.2968,0.56699,1.73785,1.74297,1.73785,2.29896,2.2968"/>
            </g>
        </g>
        <g  transform="matrix(1, 0, 0, 1, 60.0505, 2.4516)">
            <g id="connector11pin" stroke-width="0"  gorn="0.1.18.0">
                <rect y="0" stroke-width="0"  x="0" fill="#8D8C8C" width="2.29896" height="2.2968"/>
                <rect y="0.556952" stroke-width="0"  x="0.56099" fill="#8C8663" width="1.18398" height="1.18189"/>
                <polygon stroke-width="0"  fill="#B8AF82" points="0,2.2968,0.56099,1.73785,0.56099,0.501957,0,0"/>
                <polygon stroke-width="0"  fill="#80795B" points="1.74297,0.558951,0.56899,0.558951,0,0,2.29896,0"/>
                <polygon stroke-width="0"  fill="#5E5B43" points="1.74297,1.73785,1.74297,0.558951,2.29896,0,2.29896,2.2968"/>
                <polygon stroke-width="0"  fill="#9A916C" points="0,2.2968,0.56699,1.73785,1.74297,1.73785,2.29896,2.2968"/>
            </g>
        </g>
        <g  transform="matrix(1, 0, 0, 1, 67.2505, 24.0516)">
            <g id="connector9pin" stroke-width="0"  gorn="0.1.19.0">
                <rect y="0" stroke-width="0"  x="0" fill="#8D8C8C" width="2.29896" height="2.2968"/>
                <rect y="0.556952" stroke-width="0"  x="0.56099" fill="#8C8663" width="1.18398" height="1.18189"/>
                <polygon stroke-width="0"  fill="#B8AF82" points="0,2.2968,0.56099,1.73785,0.56099,0.501957,0,0"/>
                <polygon stroke-width="0"  fill="#80795B" points="1.74297,0.558951,0.56899,0.558951,0,0,2.29896,0"/>
                <polygon stroke-width="0"  fill="#5E5B43" points="1.74297,1.73785,1.74297,0.558951,2.29896,0,2.29896,2.2968"/>
                <polygon stroke-width="0"  fill="#9A916C" points="0,2.2968,0.56699,1.73785,1.74297,1.73785,2.29896,2.2968"/>
            </g>
        </g>
        <g  transform="matrix(1, 0, 0, 1, 67.2505, 2.4516)">
            <g id="connector10pin" stroke-width="0"  gorn="0.1.20.0">
                <rect y="0" stroke-width="0"  x="0" fill="#8D8C8C" width="2.29896" height="2.2968"/>
                <rect y="0.556952" stroke-width="0"  x="0.56099" fill="#8C8663" width="1.18398" height="1.18189"/>
                <polygon stroke-width="0"  fill="#B8AF82" points="0,2.2968,0.56099,1.73785,0.56099,0.501957,0,0"/>
                <polygon stroke-width="0"  fill="#80795B" points="1.74297,0.558951,0.56899,0.558951,0,0,2.29896,0"/>
                <polygon stroke-width="0"  fill="#5E5B43" points="1.74297,1.73785,1.74297,0.558951,2.29896,0,2.29896,2.2968"/>
                <polygon stroke-width="0"  fill="#9A916C" points="0,2.2968,0.56699,1.73785,1.74297,1.73785,2.29896,2.2968"/>
            </g>
        </g>
    </g>
</svg>
