<?xml version='1.0' encoding='UTF-8' standalone='no'?>
<!-- Created with Fritzing (http://www.fritzing.org/) -->
<svg xmlns="http://www.w3.org/2000/svg" version="1.2"  baseProfile="tiny" x="0in" height="0.4in" viewBox="0 0 72 28.8" y="0in" width="1in">
    <desc >
        <referenceFile >QFN-20-0.4MM_breadboard.svg</referenceFile>
    </desc>
    <desc >Fritzing breadboard generated by brd2svg</desc>
    <g  gorn="0.2" id="breadboard" stroke-width="0">
        <g  gorn="0.2.0" id="icon" stroke-width="0">
            <path  d="M0,0L0,12.24A2.16,2.16,0,0,1,0,16.56L0,28.8L72,28.8L72,0L0,0z" fill="#1F7A34" stroke="none" stroke-width="0"/>
            <g  transform="matrix(1, 0, 0, 1, 31.176, 9.576)">
                <g >
                    <g  stroke-width="0">
                        <g  transform="matrix(0.5, 0, 0, 0.5, 2.412, 2.412)">
                            <g >
                                <g  stroke-width="0">
                                    <g  transform="matrix(0, 1, -1, 0, 3.41178, 1.70078)">
                                        <g >
                                            <g  stroke-width="0">
                                                <rect  x="0.572031" fill="#8c8c8c" height="1.70078" stroke="none" y="1.70589" width="0.566929" stroke-width="0"/>
                                            </g>
                                        </g>
                                    </g>
                                    <g  transform="matrix(0, 1, -1, 0, 4.54564, 2.83465)">
                                        <g >
                                            <g  stroke-width="0">
                                                <rect  x="0.572031" fill="#8c8c8c" height="1.70078" stroke="none" y="2.83974" width="0.566929" stroke-width="0"/>
                                            </g>
                                        </g>
                                    </g>
                                    <g  transform="matrix(0, 1, -1, 0, 5.6795, 3.9685)">
                                        <g >
                                            <g  stroke-width="0">
                                                <rect  x="0.572031" fill="#8c8c8c" height="1.70078" stroke="none" y="3.97361" width="0.566929" stroke-width="0"/>
                                            </g>
                                        </g>
                                    </g>
                                    <g  transform="matrix(0, 1, -1, 0, 6.81335, 5.10236)">
                                        <g >
                                            <g  stroke-width="0">
                                                <rect  x="0.572031" fill="#8c8c8c" height="1.70078" stroke="none" y="5.10746" width="0.566929" stroke-width="0"/>
                                            </g>
                                        </g>
                                    </g>
                                    <g  transform="matrix(0, 1, -1, 0, 7.94722, 6.23622)">
                                        <g >
                                            <g  stroke-width="0">
                                                <rect  x="0.572031" fill="#8c8c8c" height="1.70078" stroke="none" y="6.24132" width="0.566929" stroke-width="0"/>
                                            </g>
                                        </g>
                                    </g>
                                    <g  transform="matrix(-1, 0, 0, -1, 5.11257, 17.585)">
                                        <g >
                                            <g  stroke-width="0">
                                                <rect  x="2.27282" fill="#8c8c8c" height="1.70078" stroke="none" y="7.9421" width="0.566929" stroke-width="0"/>
                                            </g>
                                        </g>
                                    </g>
                                    <g  transform="matrix(-1, 0, 0, -1, 7.38029, 17.585)">
                                        <g >
                                            <g  stroke-width="0">
                                                <rect  x="3.40668" fill="#8c8c8c" height="1.70078" stroke="none" y="7.9421" width="0.566929" stroke-width="0"/>
                                            </g>
                                        </g>
                                    </g>
                                    <g  transform="matrix(-1, 0, 0, -1, 9.648, 17.585)">
                                        <g >
                                            <g  stroke-width="0">
                                                <rect  x="4.54054" fill="#8c8c8c" height="1.70078" stroke="none" y="7.9421" width="0.566929" stroke-width="0"/>
                                            </g>
                                        </g>
                                    </g>
                                    <g  transform="matrix(-1, 0, 0, -1, 11.9157, 17.585)">
                                        <g >
                                            <g  stroke-width="0">
                                                <rect  x="5.67439" fill="#8c8c8c" height="1.70078" stroke="none" y="7.9421" width="0.566929" stroke-width="0"/>
                                            </g>
                                        </g>
                                    </g>
                                    <g  transform="matrix(-1, 0, 0, -1, 14.1834, 17.585)">
                                        <g >
                                            <g  stroke-width="0">
                                                <rect  x="6.80826" fill="#8c8c8c" height="1.70078" stroke="none" y="7.9421" width="0.566929" stroke-width="0"/>
                                            </g>
                                        </g>
                                    </g>
                                    <g  transform="matrix(0, -1, 1, 0, 1.70078, 15.8842)">
                                        <g >
                                            <g  stroke-width="0">
                                                <rect  x="8.50903" fill="#8c8c8c" height="1.70078" stroke="none" y="6.24132" width="0.566929" stroke-width="0"/>
                                            </g>
                                        </g>
                                    </g>
                                    <g  transform="matrix(0, -1, 1, 0, 2.83465, 14.7504)">
                                        <g >
                                            <g  stroke-width="0">
                                                <rect  x="8.50903" fill="#8c8c8c" height="1.70078" stroke="none" y="5.10746" width="0.566929" stroke-width="0"/>
                                            </g>
                                        </g>
                                    </g>
                                    <g  transform="matrix(0, -1, 1, 0, 3.9685, 13.6165)">
                                        <g >
                                            <g  stroke-width="0">
                                                <rect  x="8.50903" fill="#8c8c8c" height="1.70078" stroke="none" y="3.97361" width="0.566929" stroke-width="0"/>
                                            </g>
                                        </g>
                                    </g>
                                    <g  transform="matrix(0, -1, 1, 0, 5.10236, 12.4826)">
                                        <g >
                                            <g  stroke-width="0">
                                                <rect  x="8.50903" fill="#8c8c8c" height="1.70078" stroke="none" y="2.83974" width="0.566929" stroke-width="0"/>
                                            </g>
                                        </g>
                                    </g>
                                    <g  transform="matrix(0, -1, 1, 0, 6.23622, 11.3488)">
                                        <g >
                                            <g  stroke-width="0">
                                                <rect  x="8.50903" fill="#8c8c8c" height="1.70078" stroke="none" y="1.70589" width="0.566929" stroke-width="0"/>
                                            </g>
                                        </g>
                                    </g>
                                    <rect  x="6.80826" fill="#8c8c8c" height="1.70078" stroke="none" y="0.00510239" width="0.566929" stroke-width="0"/>
                                    <rect  x="5.67439" fill="#8c8c8c" height="1.70078" stroke="none" y="0.00510239" width="0.566929" stroke-width="0"/>
                                    <rect  x="4.54054" fill="#8c8c8c" height="1.70078" stroke="none" y="0.00510239" width="0.566929" stroke-width="0"/>
                                    <rect  x="3.40668" fill="#8c8c8c" height="1.70078" stroke="none" y="0.00510239" width="0.566929" stroke-width="0"/>
                                    <rect  x="2.27282" fill="#8c8c8c" height="1.70078" stroke="none" y="0.00510239" width="0.566929" stroke-width="0"/>
                                    <rect  x="0.572031" fill="#303030" height="8.50392" stroke="none" y="0.572031" width="8.50392" stroke-width="0"/>
                                    <polygon  fill="#1f1f1f" points="0.572031,0.572031,9.07596,0.572031,8.35596,1.29203,1.29203,1.29203" stroke-width="0"/>
                                    <polygon  fill="#1f1f1f" points="0.572031,9.07596,9.07596,9.07596,8.35596,8.35596,1.29203,8.35596" stroke-width="0"/>
                                    <polygon  fill="#000000" points="0.572031,0.572031,0.572031,9.07596,1.29203,8.35596,1.29203,1.29203" stroke-width="0"/>
                                    <polygon  fill="#3d3d3d" points="9.07596,0.572031,9.07596,9.07596,8.35596,8.35596,8.35596,1.29203" stroke-width="0"/>
                                    <circle  fill="#1f1f1f" stroke="none" cx="2.73203" cy="6.91597" r="0.72" stroke-width="0"/>
                                </g>
                            </g>
                        </g>
                    </g>
                </g>
            </g>
            <text  text-anchor="start" font-size="4.68" gorn="0.2.0.2" id="label" x="3.6" fill="white" stroke="none" y="16.155" font-family="OCRA" stroke-width="0">QFN-20-0.4MM</text>
            <g  transform="matrix(1, 0, 0, 1, 4.572, 23.4756)">
                <g >
                    <g  stroke-width="0">
                        <g  transform="rotate(-90)">
                            <g >
                                <g  stroke-width="0">
                                    <text  text-anchor="start" font-size="3.24" x="0" fill="white" stroke="none" y="0" font-family="OCRA" stroke-width="0">1</text>
                                </g>
                            </g>
                        </g>
                    </g>
                </g>
            </g>
            <g  transform="matrix(1, 0, 0, 1, 4.572, 5.3244)">
                <g >
                    <g  stroke-width="0">
                        <g  transform="rotate(-90)">
                            <g >
                                <g  stroke-width="0">
                                    <text  text-anchor="end" font-size="3.24" x="0" fill="white" stroke="none" y="0" font-family="OCRA" stroke-width="0">20</text>
                                </g>
                            </g>
                        </g>
                    </g>
                </g>
            </g>
            <g  transform="matrix(1, 0, 0, 1, 11.772, 23.4756)">
                <g >
                    <g  stroke-width="0">
                        <g  transform="rotate(-90)">
                            <g >
                                <g  stroke-width="0">
                                    <text  text-anchor="start" font-size="3.24" x="0" fill="white" stroke="none" y="0" font-family="OCRA" stroke-width="0">2</text>
                                </g>
                            </g>
                        </g>
                    </g>
                </g>
            </g>
            <g  transform="matrix(1, 0, 0, 1, 11.772, 5.3244)">
                <g >
                    <g  stroke-width="0">
                        <g  transform="rotate(-90)">
                            <g >
                                <g  stroke-width="0">
                                    <text  text-anchor="end" font-size="3.24" x="0" fill="white" stroke="none" y="0" font-family="OCRA" stroke-width="0">19</text>
                                </g>
                            </g>
                        </g>
                    </g>
                </g>
            </g>
            <g  transform="matrix(1, 0, 0, 1, 18.972, 23.4756)">
                <g >
                    <g  stroke-width="0">
                        <g  transform="rotate(-90)">
                            <g >
                                <g  stroke-width="0">
                                    <text  text-anchor="start" font-size="3.24" x="0" fill="white" stroke="none" y="0" font-family="OCRA" stroke-width="0">3</text>
                                </g>
                            </g>
                        </g>
                    </g>
                </g>
            </g>
            <g  transform="matrix(1, 0, 0, 1, 18.972, 5.3244)">
                <g >
                    <g  stroke-width="0">
                        <g  transform="rotate(-90)">
                            <g >
                                <g  stroke-width="0">
                                    <text  text-anchor="end" font-size="3.24" x="0" fill="white" stroke="none" y="0" font-family="OCRA" stroke-width="0">18</text>
                                </g>
                            </g>
                        </g>
                    </g>
                </g>
            </g>
            <g  transform="matrix(1, 0, 0, 1, 26.172, 23.4756)">
                <g >
                    <g  stroke-width="0">
                        <g  transform="rotate(-90)">
                            <g >
                                <g  stroke-width="0">
                                    <text  text-anchor="start" font-size="3.24" x="0" fill="white" stroke="none" y="0" font-family="OCRA" stroke-width="0">4</text>
                                </g>
                            </g>
                        </g>
                    </g>
                </g>
            </g>
            <g  transform="matrix(1, 0, 0, 1, 26.172, 5.3244)">
                <g >
                    <g  stroke-width="0">
                        <g  transform="rotate(-90)">
                            <g >
                                <g  stroke-width="0">
                                    <text  text-anchor="end" font-size="3.24" x="0" fill="white" stroke="none" y="0" font-family="OCRA" stroke-width="0">17</text>
                                </g>
                            </g>
                        </g>
                    </g>
                </g>
            </g>
            <g  transform="matrix(1, 0, 0, 1, 33.372, 23.4756)">
                <g >
                    <g  stroke-width="0">
                        <g  transform="rotate(-90)">
                            <g >
                                <g  stroke-width="0">
                                    <text  text-anchor="start" font-size="3.24" x="0" fill="white" stroke="none" y="0" font-family="OCRA" stroke-width="0">5</text>
                                </g>
                            </g>
                        </g>
                    </g>
                </g>
            </g>
            <g  transform="matrix(1, 0, 0, 1, 33.372, 5.3244)">
                <g >
                    <g  stroke-width="0">
                        <g  transform="rotate(-90)">
                            <g >
                                <g  stroke-width="0">
                                    <text  text-anchor="end" font-size="3.24" x="0" fill="white" stroke="none" y="0" font-family="OCRA" stroke-width="0">16</text>
                                </g>
                            </g>
                        </g>
                    </g>
                </g>
            </g>
            <g  transform="matrix(1, 0, 0, 1, 40.572, 23.4756)">
                <g >
                    <g  stroke-width="0">
                        <g  transform="rotate(-90)">
                            <g >
                                <g  stroke-width="0">
                                    <text  text-anchor="start" font-size="3.24" x="0" fill="white" stroke="none" y="0" font-family="OCRA" stroke-width="0">6</text>
                                </g>
                            </g>
                        </g>
                    </g>
                </g>
            </g>
            <g  transform="matrix(1, 0, 0, 1, 40.572, 5.3244)">
                <g >
                    <g  stroke-width="0">
                        <g  transform="rotate(-90)">
                            <g >
                                <g  stroke-width="0">
                                    <text  text-anchor="end" font-size="3.24" x="0" fill="white" stroke="none" y="0" font-family="OCRA" stroke-width="0">15</text>
                                </g>
                            </g>
                        </g>
                    </g>
                </g>
            </g>
            <g  transform="matrix(1, 0, 0, 1, 47.772, 23.4756)">
                <g >
                    <g  stroke-width="0">
                        <g  transform="rotate(-90)">
                            <g >
                                <g  stroke-width="0">
                                    <text  text-anchor="start" font-size="3.24" x="0" fill="white" stroke="none" y="0" font-family="OCRA" stroke-width="0">7</text>
                                </g>
                            </g>
                        </g>
                    </g>
                </g>
            </g>
            <g  transform="matrix(1, 0, 0, 1, 47.772, 5.3244)">
                <g >
                    <g  stroke-width="0">
                        <g  transform="rotate(-90)">
                            <g >
                                <g  stroke-width="0">
                                    <text  text-anchor="end" font-size="3.24" x="0" fill="white" stroke="none" y="0" font-family="OCRA" stroke-width="0">14</text>
                                </g>
                            </g>
                        </g>
                    </g>
                </g>
            </g>
            <g  transform="matrix(1, 0, 0, 1, 54.972, 23.4756)">
                <g >
                    <g  stroke-width="0">
                        <g  transform="rotate(-90)">
                            <g >
                                <g  stroke-width="0">
                                    <text  text-anchor="start" font-size="3.24" x="0" fill="white" stroke="none" y="0" font-family="OCRA" stroke-width="0">8</text>
                                </g>
                            </g>
                        </g>
                    </g>
                </g>
            </g>
            <g  transform="matrix(1, 0, 0, 1, 54.972, 5.3244)">
                <g >
                    <g  stroke-width="0">
                        <g  transform="rotate(-90)">
                            <g >
                                <g  stroke-width="0">
                                    <text  text-anchor="end" font-size="3.24" x="0" fill="white" stroke="none" y="0" font-family="OCRA" stroke-width="0">13</text>
                                </g>
                            </g>
                        </g>
                    </g>
                </g>
            </g>
            <g  transform="matrix(1, 0, 0, 1, 62.172, 23.4756)">
                <g >
                    <g  stroke-width="0">
                        <g  transform="rotate(-90)">
                            <g >
                                <g  stroke-width="0">
                                    <text  text-anchor="start" font-size="3.24" x="0" fill="white" stroke="none" y="0" font-family="OCRA" stroke-width="0">9</text>
                                </g>
                            </g>
                        </g>
                    </g>
                </g>
            </g>
            <g  transform="matrix(1, 0, 0, 1, 62.172, 5.3244)">
                <g >
                    <g  stroke-width="0">
                        <g  transform="rotate(-90)">
                            <g >
                                <g  stroke-width="0">
                                    <text  text-anchor="end" font-size="3.24" x="0" fill="white" stroke="none" y="0" font-family="OCRA" stroke-width="0">12</text>
                                </g>
                            </g>
                        </g>
                    </g>
                </g>
            </g>
            <g  transform="matrix(1, 0, 0, 1, 69.372, 23.4756)">
                <g >
                    <g  stroke-width="0">
                        <g  transform="rotate(-90)">
                            <g >
                                <g  stroke-width="0">
                                    <text  text-anchor="start" font-size="3.24" x="0" fill="white" stroke="none" y="0" font-family="OCRA" stroke-width="0">10</text>
                                </g>
                            </g>
                        </g>
                    </g>
                </g>
            </g>
            <g  transform="matrix(1, 0, 0, 1, 69.372, 5.3244)">
                <g >
                    <g  stroke-width="0">
                        <g  transform="rotate(-90)">
                            <g >
                                <g  stroke-width="0">
                                    <text  text-anchor="end" font-size="3.24" x="0" fill="white" stroke="none" y="0" font-family="OCRA" stroke-width="0">11</text>
                                </g>
                            </g>
                        </g>
                    </g>
                </g>
            </g>
        </g>
        <g  transform="matrix(1, 0, 0, 1, 2.45052, 24.0516)">
            <g >
                <g  gorn="0.2.1.0.0" id="connector0pin" stroke-width="0">
                    <rect  x="0" fill="#8D8C8C" height="2.2968" y="0" width="2.29896" stroke-width="0"/>
                    <rect  x="0.56099" fill="#8C8663" height="1.18189" y="0.556952" width="1.18398" stroke-width="0"/>
                    <polygon  fill="#B8AF82" points="0,2.2968,0.56099,1.73785,0.56099,0.501957,0,0" stroke-width="0"/>
                    <polygon  fill="#80795B" points="1.74297,0.558951,0.56899,0.558951,0,0,2.29896,0" stroke-width="0"/>
                    <polygon  fill="#5E5B43" points="1.74297,1.73785,1.74297,0.558951,2.29896,0,2.29896,2.2968" stroke-width="0"/>
                    <polygon  fill="#9A916C" points="0,2.2968,0.56699,1.73785,1.74297,1.73785,2.29896,2.2968" stroke-width="0"/>
                </g>
            </g>
        </g>
        <g  transform="matrix(1, 0, 0, 1, 2.45052, 2.4516)">
            <g >
                <g  gorn="0.2.2.0.0" id="connector19pin" stroke-width="0">
                    <rect  x="0" fill="#8D8C8C" height="2.2968" y="0" width="2.29896" stroke-width="0"/>
                    <rect  x="0.56099" fill="#8C8663" height="1.18189" y="0.556952" width="1.18398" stroke-width="0"/>
                    <polygon  fill="#B8AF82" points="0,2.2968,0.56099,1.73785,0.56099,0.501957,0,0" stroke-width="0"/>
                    <polygon  fill="#80795B" points="1.74297,0.558951,0.56899,0.558951,0,0,2.29896,0" stroke-width="0"/>
                    <polygon  fill="#5E5B43" points="1.74297,1.73785,1.74297,0.558951,2.29896,0,2.29896,2.2968" stroke-width="0"/>
                    <polygon  fill="#9A916C" points="0,2.2968,0.56699,1.73785,1.74297,1.73785,2.29896,2.2968" stroke-width="0"/>
                </g>
            </g>
        </g>
        <g  transform="matrix(1, 0, 0, 1, 9.65052, 24.0516)">
            <g >
                <g  gorn="0.2.3.0.0" id="connector1pin" stroke-width="0">
                    <rect  x="0" fill="#8D8C8C" height="2.2968" y="0" width="2.29896" stroke-width="0"/>
                    <rect  x="0.56099" fill="#8C8663" height="1.18189" y="0.556952" width="1.18398" stroke-width="0"/>
                    <polygon  fill="#B8AF82" points="0,2.2968,0.56099,1.73785,0.56099,0.501957,0,0" stroke-width="0"/>
                    <polygon  fill="#80795B" points="1.74297,0.558951,0.56899,0.558951,0,0,2.29896,0" stroke-width="0"/>
                    <polygon  fill="#5E5B43" points="1.74297,1.73785,1.74297,0.558951,2.29896,0,2.29896,2.2968" stroke-width="0"/>
                    <polygon  fill="#9A916C" points="0,2.2968,0.56699,1.73785,1.74297,1.73785,2.29896,2.2968" stroke-width="0"/>
                </g>
            </g>
        </g>
        <g  transform="matrix(1, 0, 0, 1, 9.65052, 2.4516)">
            <g >
                <g  gorn="0.2.4.0.0" id="connector18pin" stroke-width="0">
                    <rect  x="0" fill="#8D8C8C" height="2.2968" y="0" width="2.29896" stroke-width="0"/>
                    <rect  x="0.56099" fill="#8C8663" height="1.18189" y="0.556952" width="1.18398" stroke-width="0"/>
                    <polygon  fill="#B8AF82" points="0,2.2968,0.56099,1.73785,0.56099,0.501957,0,0" stroke-width="0"/>
                    <polygon  fill="#80795B" points="1.74297,0.558951,0.56899,0.558951,0,0,2.29896,0" stroke-width="0"/>
                    <polygon  fill="#5E5B43" points="1.74297,1.73785,1.74297,0.558951,2.29896,0,2.29896,2.2968" stroke-width="0"/>
                    <polygon  fill="#9A916C" points="0,2.2968,0.56699,1.73785,1.74297,1.73785,2.29896,2.2968" stroke-width="0"/>
                </g>
            </g>
        </g>
        <g  transform="matrix(1, 0, 0, 1, 16.8505, 24.0516)">
            <g >
                <g  gorn="0.2.5.0.0" id="connector2pin" stroke-width="0">
                    <rect  x="0" fill="#8D8C8C" height="2.2968" y="0" width="2.29896" stroke-width="0"/>
                    <rect  x="0.56099" fill="#8C8663" height="1.18189" y="0.556952" width="1.18398" stroke-width="0"/>
                    <polygon  fill="#B8AF82" points="0,2.2968,0.56099,1.73785,0.56099,0.501957,0,0" stroke-width="0"/>
                    <polygon  fill="#80795B" points="1.74297,0.558951,0.56899,0.558951,0,0,2.29896,0" stroke-width="0"/>
                    <polygon  fill="#5E5B43" points="1.74297,1.73785,1.74297,0.558951,2.29896,0,2.29896,2.2968" stroke-width="0"/>
                    <polygon  fill="#9A916C" points="0,2.2968,0.56699,1.73785,1.74297,1.73785,2.29896,2.2968" stroke-width="0"/>
                </g>
            </g>
        </g>
        <g  transform="matrix(1, 0, 0, 1, 16.8505, 2.4516)">
            <g >
                <g  gorn="0.2.6.0.0" id="connector17pin" stroke-width="0">
                    <rect  x="0" fill="#8D8C8C" height="2.2968" y="0" width="2.29896" stroke-width="0"/>
                    <rect  x="0.56099" fill="#8C8663" height="1.18189" y="0.556952" width="1.18398" stroke-width="0"/>
                    <polygon  fill="#B8AF82" points="0,2.2968,0.56099,1.73785,0.56099,0.501957,0,0" stroke-width="0"/>
                    <polygon  fill="#80795B" points="1.74297,0.558951,0.56899,0.558951,0,0,2.29896,0" stroke-width="0"/>
                    <polygon  fill="#5E5B43" points="1.74297,1.73785,1.74297,0.558951,2.29896,0,2.29896,2.2968" stroke-width="0"/>
                    <polygon  fill="#9A916C" points="0,2.2968,0.56699,1.73785,1.74297,1.73785,2.29896,2.2968" stroke-width="0"/>
                </g>
            </g>
        </g>
        <g  transform="matrix(1, 0, 0, 1, 24.0505, 24.0516)">
            <g >
                <g  gorn="0.2.7.0.0" id="connector3pin" stroke-width="0">
                    <rect  x="0" fill="#8D8C8C" height="2.2968" y="0" width="2.29896" stroke-width="0"/>
                    <rect  x="0.56099" fill="#8C8663" height="1.18189" y="0.556952" width="1.18398" stroke-width="0"/>
                    <polygon  fill="#B8AF82" points="0,2.2968,0.56099,1.73785,0.56099,0.501957,0,0" stroke-width="0"/>
                    <polygon  fill="#80795B" points="1.74297,0.558951,0.56899,0.558951,0,0,2.29896,0" stroke-width="0"/>
                    <polygon  fill="#5E5B43" points="1.74297,1.73785,1.74297,0.558951,2.29896,0,2.29896,2.2968" stroke-width="0"/>
                    <polygon  fill="#9A916C" points="0,2.2968,0.56699,1.73785,1.74297,1.73785,2.29896,2.2968" stroke-width="0"/>
                </g>
            </g>
        </g>
        <g  transform="matrix(1, 0, 0, 1, 24.0505, 2.4516)">
            <g >
                <g  gorn="0.2.8.0.0" id="connector16pin" stroke-width="0">
                    <rect  x="0" fill="#8D8C8C" height="2.2968" y="0" width="2.29896" stroke-width="0"/>
                    <rect  x="0.56099" fill="#8C8663" height="1.18189" y="0.556952" width="1.18398" stroke-width="0"/>
                    <polygon  fill="#B8AF82" points="0,2.2968,0.56099,1.73785,0.56099,0.501957,0,0" stroke-width="0"/>
                    <polygon  fill="#80795B" points="1.74297,0.558951,0.56899,0.558951,0,0,2.29896,0" stroke-width="0"/>
                    <polygon  fill="#5E5B43" points="1.74297,1.73785,1.74297,0.558951,2.29896,0,2.29896,2.2968" stroke-width="0"/>
                    <polygon  fill="#9A916C" points="0,2.2968,0.56699,1.73785,1.74297,1.73785,2.29896,2.2968" stroke-width="0"/>
                </g>
            </g>
        </g>
        <g  transform="matrix(1, 0, 0, 1, 31.2505, 24.0516)">
            <g >
                <g  gorn="0.2.9.0.0" id="connector4pin" stroke-width="0">
                    <rect  x="0" fill="#8D8C8C" height="2.2968" y="0" width="2.29896" stroke-width="0"/>
                    <rect  x="0.56099" fill="#8C8663" height="1.18189" y="0.556952" width="1.18398" stroke-width="0"/>
                    <polygon  fill="#B8AF82" points="0,2.2968,0.56099,1.73785,0.56099,0.501957,0,0" stroke-width="0"/>
                    <polygon  fill="#80795B" points="1.74297,0.558951,0.56899,0.558951,0,0,2.29896,0" stroke-width="0"/>
                    <polygon  fill="#5E5B43" points="1.74297,1.73785,1.74297,0.558951,2.29896,0,2.29896,2.2968" stroke-width="0"/>
                    <polygon  fill="#9A916C" points="0,2.2968,0.56699,1.73785,1.74297,1.73785,2.29896,2.2968" stroke-width="0"/>
                </g>
            </g>
        </g>
        <g  transform="matrix(1, 0, 0, 1, 31.2505, 2.4516)">
            <g >
                <g  gorn="0.2.10.0.0" id="connector15pin" stroke-width="0">
                    <rect  x="0" fill="#8D8C8C" height="2.2968" y="0" width="2.29896" stroke-width="0"/>
                    <rect  x="0.56099" fill="#8C8663" height="1.18189" y="0.556952" width="1.18398" stroke-width="0"/>
                    <polygon  fill="#B8AF82" points="0,2.2968,0.56099,1.73785,0.56099,0.501957,0,0" stroke-width="0"/>
                    <polygon  fill="#80795B" points="1.74297,0.558951,0.56899,0.558951,0,0,2.29896,0" stroke-width="0"/>
                    <polygon  fill="#5E5B43" points="1.74297,1.73785,1.74297,0.558951,2.29896,0,2.29896,2.2968" stroke-width="0"/>
                    <polygon  fill="#9A916C" points="0,2.2968,0.56699,1.73785,1.74297,1.73785,2.29896,2.2968" stroke-width="0"/>
                </g>
            </g>
        </g>
        <g  transform="matrix(1, 0, 0, 1, 38.4505, 24.0516)">
            <g >
                <g  gorn="0.2.11.0.0" id="connector5pin" stroke-width="0">
                    <rect  x="0" fill="#8D8C8C" height="2.2968" y="0" width="2.29896" stroke-width="0"/>
                    <rect  x="0.56099" fill="#8C8663" height="1.18189" y="0.556952" width="1.18398" stroke-width="0"/>
                    <polygon  fill="#B8AF82" points="0,2.2968,0.56099,1.73785,0.56099,0.501957,0,0" stroke-width="0"/>
                    <polygon  fill="#80795B" points="1.74297,0.558951,0.56899,0.558951,0,0,2.29896,0" stroke-width="0"/>
                    <polygon  fill="#5E5B43" points="1.74297,1.73785,1.74297,0.558951,2.29896,0,2.29896,2.2968" stroke-width="0"/>
                    <polygon  fill="#9A916C" points="0,2.2968,0.56699,1.73785,1.74297,1.73785,2.29896,2.2968" stroke-width="0"/>
                </g>
            </g>
        </g>
        <g  transform="matrix(1, 0, 0, 1, 38.4505, 2.4516)">
            <g >
                <g  gorn="0.2.12.0.0" id="connector14pin" stroke-width="0">
                    <rect  x="0" fill="#8D8C8C" height="2.2968" y="0" width="2.29896" stroke-width="0"/>
                    <rect  x="0.56099" fill="#8C8663" height="1.18189" y="0.556952" width="1.18398" stroke-width="0"/>
                    <polygon  fill="#B8AF82" points="0,2.2968,0.56099,1.73785,0.56099,0.501957,0,0" stroke-width="0"/>
                    <polygon  fill="#80795B" points="1.74297,0.558951,0.56899,0.558951,0,0,2.29896,0" stroke-width="0"/>
                    <polygon  fill="#5E5B43" points="1.74297,1.73785,1.74297,0.558951,2.29896,0,2.29896,2.2968" stroke-width="0"/>
                    <polygon  fill="#9A916C" points="0,2.2968,0.56699,1.73785,1.74297,1.73785,2.29896,2.2968" stroke-width="0"/>
                </g>
            </g>
        </g>
        <g  transform="matrix(1, 0, 0, 1, 45.6505, 24.0516)">
            <g >
                <g  gorn="0.2.13.0.0" id="connector6pin" stroke-width="0">
                    <rect  x="0" fill="#8D8C8C" height="2.2968" y="0" width="2.29896" stroke-width="0"/>
                    <rect  x="0.56099" fill="#8C8663" height="1.18189" y="0.556952" width="1.18398" stroke-width="0"/>
                    <polygon  fill="#B8AF82" points="0,2.2968,0.56099,1.73785,0.56099,0.501957,0,0" stroke-width="0"/>
                    <polygon  fill="#80795B" points="1.74297,0.558951,0.56899,0.558951,0,0,2.29896,0" stroke-width="0"/>
                    <polygon  fill="#5E5B43" points="1.74297,1.73785,1.74297,0.558951,2.29896,0,2.29896,2.2968" stroke-width="0"/>
                    <polygon  fill="#9A916C" points="0,2.2968,0.56699,1.73785,1.74297,1.73785,2.29896,2.2968" stroke-width="0"/>
                </g>
            </g>
        </g>
        <g  transform="matrix(1, 0, 0, 1, 45.6505, 2.4516)">
            <g >
                <g  gorn="0.2.14.0.0" id="connector13pin" stroke-width="0">
                    <rect  x="0" fill="#8D8C8C" height="2.2968" y="0" width="2.29896" stroke-width="0"/>
                    <rect  x="0.56099" fill="#8C8663" height="1.18189" y="0.556952" width="1.18398" stroke-width="0"/>
                    <polygon  fill="#B8AF82" points="0,2.2968,0.56099,1.73785,0.56099,0.501957,0,0" stroke-width="0"/>
                    <polygon  fill="#80795B" points="1.74297,0.558951,0.56899,0.558951,0,0,2.29896,0" stroke-width="0"/>
                    <polygon  fill="#5E5B43" points="1.74297,1.73785,1.74297,0.558951,2.29896,0,2.29896,2.2968" stroke-width="0"/>
                    <polygon  fill="#9A916C" points="0,2.2968,0.56699,1.73785,1.74297,1.73785,2.29896,2.2968" stroke-width="0"/>
                </g>
            </g>
        </g>
        <g  transform="matrix(1, 0, 0, 1, 52.8505, 24.0516)">
            <g >
                <g  gorn="0.2.15.0.0" id="connector7pin" stroke-width="0">
                    <rect  x="0" fill="#8D8C8C" height="2.2968" y="0" width="2.29896" stroke-width="0"/>
                    <rect  x="0.56099" fill="#8C8663" height="1.18189" y="0.556952" width="1.18398" stroke-width="0"/>
                    <polygon  fill="#B8AF82" points="0,2.2968,0.56099,1.73785,0.56099,0.501957,0,0" stroke-width="0"/>
                    <polygon  fill="#80795B" points="1.74297,0.558951,0.56899,0.558951,0,0,2.29896,0" stroke-width="0"/>
                    <polygon  fill="#5E5B43" points="1.74297,1.73785,1.74297,0.558951,2.29896,0,2.29896,2.2968" stroke-width="0"/>
                    <polygon  fill="#9A916C" points="0,2.2968,0.56699,1.73785,1.74297,1.73785,2.29896,2.2968" stroke-width="0"/>
                </g>
            </g>
        </g>
        <g  transform="matrix(1, 0, 0, 1, 52.8505, 2.4516)">
            <g >
                <g  gorn="0.2.16.0.0" id="connector12pin" stroke-width="0">
                    <rect  x="0" fill="#8D8C8C" height="2.2968" y="0" width="2.29896" stroke-width="0"/>
                    <rect  x="0.56099" fill="#8C8663" height="1.18189" y="0.556952" width="1.18398" stroke-width="0"/>
                    <polygon  fill="#B8AF82" points="0,2.2968,0.56099,1.73785,0.56099,0.501957,0,0" stroke-width="0"/>
                    <polygon  fill="#80795B" points="1.74297,0.558951,0.56899,0.558951,0,0,2.29896,0" stroke-width="0"/>
                    <polygon  fill="#5E5B43" points="1.74297,1.73785,1.74297,0.558951,2.29896,0,2.29896,2.2968" stroke-width="0"/>
                    <polygon  fill="#9A916C" points="0,2.2968,0.56699,1.73785,1.74297,1.73785,2.29896,2.2968" stroke-width="0"/>
                </g>
            </g>
        </g>
        <g  transform="matrix(1, 0, 0, 1, 60.0505, 24.0516)">
            <g >
                <g  gorn="0.2.17.0.0" id="connector8pin" stroke-width="0">
                    <rect  x="0" fill="#8D8C8C" height="2.2968" y="0" width="2.29896" stroke-width="0"/>
                    <rect  x="0.56099" fill="#8C8663" height="1.18189" y="0.556952" width="1.18398" stroke-width="0"/>
                    <polygon  fill="#B8AF82" points="0,2.2968,0.56099,1.73785,0.56099,0.501957,0,0" stroke-width="0"/>
                    <polygon  fill="#80795B" points="1.74297,0.558951,0.56899,0.558951,0,0,2.29896,0" stroke-width="0"/>
                    <polygon  fill="#5E5B43" points="1.74297,1.73785,1.74297,0.558951,2.29896,0,2.29896,2.2968" stroke-width="0"/>
                    <polygon  fill="#9A916C" points="0,2.2968,0.56699,1.73785,1.74297,1.73785,2.29896,2.2968" stroke-width="0"/>
                </g>
            </g>
        </g>
        <g  transform="matrix(1, 0, 0, 1, 60.0505, 2.4516)">
            <g >
                <g  gorn="0.2.18.0.0" id="connector11pin" stroke-width="0">
                    <rect  x="0" fill="#8D8C8C" height="2.2968" y="0" width="2.29896" stroke-width="0"/>
                    <rect  x="0.56099" fill="#8C8663" height="1.18189" y="0.556952" width="1.18398" stroke-width="0"/>
                    <polygon  fill="#B8AF82" points="0,2.2968,0.56099,1.73785,0.56099,0.501957,0,0" stroke-width="0"/>
                    <polygon  fill="#80795B" points="1.74297,0.558951,0.56899,0.558951,0,0,2.29896,0" stroke-width="0"/>
                    <polygon  fill="#5E5B43" points="1.74297,1.73785,1.74297,0.558951,2.29896,0,2.29896,2.2968" stroke-width="0"/>
                    <polygon  fill="#9A916C" points="0,2.2968,0.56699,1.73785,1.74297,1.73785,2.29896,2.2968" stroke-width="0"/>
                </g>
            </g>
        </g>
        <g  transform="matrix(1, 0, 0, 1, 67.2505, 24.0516)">
            <g >
                <g  gorn="0.2.19.0.0" id="connector9pin" stroke-width="0">
                    <rect  x="0" fill="#8D8C8C" height="2.2968" y="0" width="2.29896" stroke-width="0"/>
                    <rect  x="0.56099" fill="#8C8663" height="1.18189" y="0.556952" width="1.18398" stroke-width="0"/>
                    <polygon  fill="#B8AF82" points="0,2.2968,0.56099,1.73785,0.56099,0.501957,0,0" stroke-width="0"/>
                    <polygon  fill="#80795B" points="1.74297,0.558951,0.56899,0.558951,0,0,2.29896,0" stroke-width="0"/>
                    <polygon  fill="#5E5B43" points="1.74297,1.73785,1.74297,0.558951,2.29896,0,2.29896,2.2968" stroke-width="0"/>
                    <polygon  fill="#9A916C" points="0,2.2968,0.56699,1.73785,1.74297,1.73785,2.29896,2.2968" stroke-width="0"/>
                </g>
            </g>
        </g>
        <g  transform="matrix(1, 0, 0, 1, 67.2505, 2.4516)">
            <g >
                <g  gorn="0.2.20.0.0" id="connector10pin" stroke-width="0">
                    <rect  x="0" fill="#8D8C8C" height="2.2968" y="0" width="2.29896" stroke-width="0"/>
                    <rect  x="0.56099" fill="#8C8663" height="1.18189" y="0.556952" width="1.18398" stroke-width="0"/>
                    <polygon  fill="#B8AF82" points="0,2.2968,0.56099,1.73785,0.56099,0.501957,0,0" stroke-width="0"/>
                    <polygon  fill="#80795B" points="1.74297,0.558951,0.56899,0.558951,0,0,2.29896,0" stroke-width="0"/>
                    <polygon  fill="#5E5B43" points="1.74297,1.73785,1.74297,0.558951,2.29896,0,2.29896,2.2968" stroke-width="0"/>
                    <polygon  fill="#9A916C" points="0,2.2968,0.56699,1.73785,1.74297,1.73785,2.29896,2.2968" stroke-width="0"/>
                </g>
            </g>
        </g>
    </g>
</svg>
